<?xml version="1.0" standalone="no"?>
<!DOCTYPE svg PUBLIC "-//W3C//DTD SVG 20010904//EN"
    "http://www.w3.org/TR/2001/REC-SVG-20010904/DTD/svg10.dtd">
<svg version="1.0" xmlns="http://www.w3.org/2000/svg"
     width="1024.000000pt" height="1024.000000pt" viewBox="0 0 1024.000000 1024.000000"
     preserveAspectRatio="xMidYMid meet">
  <metadata>
    Created by potrace 1.11, written by Peter Selinger 2001-2013
  </metadata>
  <g transform="translate(0.000000,1024.000000) scale(0.100000,-0.100000)"
     fill="#000000" stroke="none">
    <path d="M0 5120 l0 -5120 5115 0 c2813 0 5115 2 5115 5 0 3 -102 108 -226
233 -1530 1539 -2039 2056 -2040 2074 -1 11 5 22 12 25 7 2 10 11 7 19 -3 8 0
14 7 14 6 0 8 5 5 10 -3 6 -1 10 5 10 6 0 8 5 5 10 -3 5 -2 10 3 10 6 0 15 12
21 27 6 16 22 46 36 68 14 22 30 51 37 65 6 14 20 34 29 45 10 11 19 27 21 35
2 8 11 21 21 28 9 7 17 19 17 27 0 7 13 27 30 45 16 18 30 36 30 41 0 6 11 22
25 37 14 15 25 32 25 39 0 7 9 18 20 25 11 7 20 16 20 21 0 15 47 77 53 70 4
-3 7 1 7 10 0 9 5 17 11 17 5 0 8 4 5 9 -3 5 8 23 24 40 17 17 28 31 25 31 -4
0 2 9 48 62 9 12 17 24 17 27 0 3 11 19 25 34 14 15 23 27 18 27 -4 0 2 7 13
15 10 8 15 15 10 15 -4 0 2 9 15 20 13 10 21 19 17 20 -5 0 0 9 10 19 45 51
66 81 78 113 3 10 10 16 14 13 4 -3 11 7 14 20 4 14 11 23 16 20 6 -3 10 1 10
9 0 9 5 16 11 16 5 0 7 5 4 10 -3 6 -1 10 6 10 7 0 10 3 6 6 -3 3 3 15 13 26
10 12 26 36 35 54 9 19 20 34 25 34 6 0 10 6 10 13 0 7 9 23 19 34 11 12 17
24 13 27 -3 4 0 11 8 16 8 5 15 13 15 17 1 10 37 66 48 74 5 3 8 8 7 10 -2 5
23 63 31 69 5 5 18 35 19 45 0 3 9 14 20 25 11 11 20 27 20 35 0 8 5 15 12 15
6 0 9 3 5 6 -3 3 6 25 20 48 15 22 26 47 26 53 0 7 4 13 8 13 4 0 11 10 15 23
3 12 15 33 24 47 10 14 18 27 18 30 0 8 37 85 43 90 3 3 12 22 20 43 7 20 17
37 22 37 5 0 7 6 4 14 -3 8 0 16 7 19 6 3 21 30 31 61 11 31 23 56 27 56 4 0
8 5 8 12 0 6 11 34 24 62 21 45 36 80 41 96 1 3 8 21 17 40 22 47 40 94 39 98
-1 1 6 16 14 32 9 17 13 30 9 30 -4 0 -1 7 6 15 6 8 9 18 6 24 -3 5 -2 11 4
13 6 2 12 14 15 28 3 14 9 26 15 28 6 2 7 8 4 13 -3 6 0 16 6 24 10 11 10 15
1 15 -7 0 -9 5 -6 10 4 6 10 8 14 6 6 -4 11 14 14 57 1 9 5 17 10 17 4 0 6 4
3 9 -3 4 1 16 8 27 8 10 12 24 9 31 -3 7 -1 13 4 13 5 0 9 10 8 23 -1 12 0 27
4 32 6 11 12 32 13 53 1 6 5 12 9 12 4 0 6 11 4 25 -1 14 1 25 5 25 4 0 7 6 8
13 1 12 7 46 14 77 2 8 6 20 9 25 3 6 4 20 3 33 0 12 1 22 5 22 3 0 7 17 8 38
2 20 4 54 5 75 1 20 5 37 9 37 3 0 6 23 5 50 0 28 3 50 7 50 4 0 7 38 5 85 -2
47 0 85 5 85 9 0 10 154 0 163 -3 4 -6 43 -5 87 1 44 -2 80 -6 80 -4 0 -8 21
-10 48 -4 97 -6 112 -15 112 -4 0 -8 10 -7 23 1 12 1 24 0 27 -1 3 -3 16 -6
30 -5 32 -32 124 -50 171 -7 20 -10 39 -7 43 4 3 1 6 -5 6 -7 0 -12 9 -12 20
0 11 -10 42 -21 68 -39 87 -103 214 -111 218 -5 3 -8 12 -8 21 0 9 -11 31 -25
48 -13 18 -21 35 -18 39 4 3 2 6 -4 6 -5 0 -15 12 -22 27 -7 15 -26 44 -42 65
-17 21 -28 38 -24 38 3 0 -13 18 -36 40 -23 22 -39 40 -36 40 7 0 -114 120
-160 159 -15 13 -31 23 -35 23 -4 -1 -23 14 -43 33 -19 19 -41 35 -48 35 -6 0
-25 11 -41 25 -16 13 -33 22 -37 19 -5 -3 -9 -1 -9 4 0 9 -80 46 -89 42 -2 -1
-7 3 -10 8 -8 13 -98 53 -122 55 -10 1 -19 4 -19 7 0 4 -6 7 -12 8 -33 3 -53
8 -58 13 -3 3 -20 11 -37 17 -25 8 -33 8 -33 -1 0 -8 -4 -7 -9 2 -9 14 -15 16
-71 25 -14 2 -32 6 -40 9 -8 3 -31 5 -50 5 -19 0 -42 2 -50 5 -40 14 -50 16
-50 8 0 -4 -15 -6 -32 -5 -18 1 -33 3 -33 4 0 1 -28 4 -62 6 -41 2 -63 0 -63
-8 0 -7 -4 -7 -13 0 -7 6 -18 7 -26 3 -12 -8 -59 -7 -67 1 -2 2 507 514 1131
1136 624 623 1135 1134 1135 1137 0 3 -2302 5 -5115 5 l-5115 0 0 -5120z
m6376 4573 c186 -78 343 -249 394 -430 42 -144 17 -326 -64 -464 -64 -111 -80
-130 -263 -321 -132 -138 -138 -116 102 -358 139 -139 195 -202 195 -218 0
-16 -48 -72 -162 -187 -140 -142 -208 -198 -223 -184 -2 2 -299 298 -659 657
-457 456 -656 660 -656 675 0 15 102 124 323 345 379 381 433 425 592 485 99
36 97 36 230 33 106 -3 128 -6 191 -33z m-948 -1791 c372 -371 652 -658 652
-668 0 -23 -318 -343 -348 -351 -20 -5 -69 40 -343 313 -176 176 -328 323
-339 328 -10 5 -30 6 -44 2 -47 -12 -43 -43 25 -208 74 -183 134 -332 163
-410 l21 -58 -115 -115 c-63 -63 -122 -118 -131 -120 -9 -3 -41 5 -71 18 -30
13 -72 30 -93 37 -22 7 -80 30 -130 50 -162 69 -320 130 -337 130 -25 0 -48
-28 -48 -58 0 -21 48 -75 240 -267 132 -132 240 -243 240 -247 0 -7 -21 -5
-36 4 -5 4 -33 6 -62 4 -31 -1 -52 2 -52 9 0 5 -4 4 -9 -4 -6 -9 -11 -10 -15
-2 -4 6 -12 9 -17 6 -5 -4 -9 -1 -9 6 0 8 -4 8 -15 -1 -9 -8 -15 -8 -15 -2 0
7 -10 8 -28 2 -16 -4 -36 -4 -45 2 -10 5 -17 5 -17 1 0 -4 -40 -8 -90 -8 -49
0 -90 4 -90 8 0 4 -9 3 -20 -3 -15 -8 -20 -8 -20 2 0 8 -3 9 -8 3 -4 -5 -25
-11 -47 -12 -22 0 -64 -3 -92 -5 l-52 -4 -386 382 c-288 286 -385 388 -385
406 0 17 57 80 213 237 118 117 221 218 231 223 12 7 117 -31 405 -147 214
-86 405 -158 423 -162 39 -6 68 15 68 48 0 19 -70 204 -145 384 -62 148 -175
438 -175 449 0 14 367 390 424 435 28 22 43 28 55 21 9 -5 310 -301 669 -658z
m1968 -538 c4 -27 18 -54 27 -54 6 0 7 -3 4 -7 -4 -3 1 -12 11 -20 9 -8 11
-11 4 -8 -8 4 -2 -11 12 -34 14 -22 26 -45 26 -50 0 -5 7 -12 16 -15 8 -3 12
-10 9 -16 -3 -5 0 -10 9 -10 8 0 16 -5 18 -10 2 -6 13 -12 26 -13 12 0 22 -5
22 -10 0 -5 10 -6 23 -3 12 4 36 9 52 12 17 4 33 11 37 17 4 7 8 9 8 4 0 -4
18 4 39 17 21 14 42 22 45 19 3 -4 6 -1 6 5 0 7 3 11 8 11 21 -4 43 2 38 10
-5 8 20 18 65 27 9 2 29 9 45 15 16 7 39 12 52 12 12 0 22 3 22 6 0 4 25 6 55
5 33 -1 55 3 55 9 0 7 4 7 12 -1 8 -8 15 -9 25 -1 7 7 13 7 13 2 0 -5 30 -10
68 -11 37 0 81 -4 97 -7 17 -4 38 -7 48 -9 10 -1 22 -7 25 -12 4 -5 18 -11 32
-12 47 -7 169 -83 238 -149 19 -18 37 -33 41 -33 6 0 31 -35 31 -45 1 -2 16
-21 35 -41 19 -20 35 -42 35 -49 0 -6 9 -21 20 -33 12 -12 17 -22 13 -22 -4 0
1 -7 11 -15 11 -8 16 -15 12 -15 -5 0 -3 -7 4 -15 6 -8 9 -19 5 -25 -3 -5 1
-10 9 -10 10 0 13 -6 10 -15 -4 -8 -1 -15 7 -15 7 0 10 -3 6 -6 -3 -4 0 -23 8
-43 7 -20 14 -44 15 -53 4 -58 6 -68 13 -68 4 0 3 -9 -3 -20 -8 -16 -8 -22 3
-25 10 -5 11 -21 6 -75 -4 -39 -10 -74 -14 -79 -3 -5 -1 -12 5 -16 6 -4 7 -12
3 -18 -9 -15 -14 -37 -14 -60 0 -10 -6 -36 -14 -57 -8 -22 -12 -40 -8 -40 3 0
0 -7 -7 -15 -6 -8 -9 -19 -5 -25 3 -5 1 -10 -5 -10 -6 0 -9 -4 -5 -9 3 -5 0
-13 -6 -16 -5 -4 -8 -13 -5 -21 3 -8 1 -14 -4 -14 -4 0 -16 -22 -25 -50 -9
-27 -20 -50 -23 -50 -4 0 -18 -25 -32 -55 -14 -30 -28 -55 -31 -55 -3 0 -14
-18 -24 -40 -10 -22 -20 -38 -23 -35 -5 5 -27 -27 -38 -56 -3 -9 -17 -22 -30
-29 -13 -8 -22 -15 -20 -18 10 -9 -113 -131 -209 -207 -38 -30 -75 -59 -81
-64 -6 -5 -20 -12 -32 -15 -12 -4 -22 -12 -22 -17 0 -6 -4 -8 -9 -4 -6 3 -13
-1 -18 -8 -4 -7 -23 -19 -40 -26 -18 -8 -33 -18 -33 -24 0 -6 -3 -8 -6 -4 -3
3 -35 -8 -71 -24 -37 -16 -73 -31 -82 -33 -9 -2 -28 -8 -42 -14 -14 -5 -41
-13 -60 -17 -71 -13 -114 -23 -114 -25 0 -1 -10 -3 -22 -4 -13 -2 -23 2 -23 8
0 6 -5 4 -10 -4 -5 -8 -10 -11 -10 -6 0 5 -6 4 -12 -1 -14 -9 -257 -8 -318 2
-19 3 -42 7 -50 8 -8 1 -21 6 -27 10 -8 5 -13 3 -13 -3 0 -8 -6 -7 -21 1 -12
6 -30 9 -40 6 -10 -3 -17 -1 -13 4 3 5 2 9 -3 10 -4 0 -17 3 -28 5 -11 2 -29
5 -40 6 -11 1 -22 5 -25 9 -3 4 -17 9 -30 11 -14 2 -47 14 -75 27 -27 13 -55
24 -62 25 -18 3 -108 50 -111 59 -2 4 -7 5 -12 2 -5 -3 -15 2 -24 11 -9 8 -20
12 -26 9 -6 -3 -13 0 -15 8 -3 7 -21 20 -40 27 -19 8 -35 17 -35 22 0 4 -6 8
-13 8 -8 0 -22 9 -32 20 -10 11 -24 20 -32 20 -7 0 -13 5 -13 10 0 6 -5 10
-11 10 -11 0 -46 25 -96 68 -14 12 -30 22 -35 22 -5 0 -16 6 -23 13 -35 31
-45 37 -60 37 -8 0 -15 5 -15 10 0 6 -12 16 -27 23 -16 6 -37 20 -47 29 -11
10 -24 18 -30 18 -5 0 -17 6 -25 14 -9 8 -23 16 -31 18 -8 2 -23 12 -32 22
-10 10 -18 16 -18 12 0 -4 -13 2 -29 13 -15 11 -31 18 -35 14 -3 -3 -6 -1 -6
6 0 7 -4 9 -10 6 -5 -3 -10 -1 -10 4 0 6 -9 11 -20 11 -11 0 -20 4 -20 9 0 8
-53 34 -65 32 -3 -1 -13 5 -21 14 -9 8 -20 12 -26 9 -5 -4 -8 1 -6 11 4 22
1420 1436 1433 1432 6 -2 11 -8 11 -13z m-4595 -984 c83 -38 152 -70 154 -70
2 0 54 -24 117 -53 62 -29 129 -59 148 -67 35 -13 79 -39 70 -41 -3 0 -13 -2
-22 -5 -10 -2 -26 -6 -35 -8 -10 -3 -19 -5 -20 -5 -2 -1 -5 -1 -8 -1 -2 -1
-21 -8 -40 -16 -20 -8 -40 -12 -44 -9 -5 2 -14 -2 -21 -10 -7 -8 -16 -13 -20
-10 -5 3 -19 1 -32 -4 -40 -16 -63 -24 -79 -27 -9 -2 -37 -13 -63 -24 -26 -11
-51 -20 -56 -20 -4 0 -24 -7 -44 -15 -20 -8 -38 -15 -41 -15 -3 1 -18 -6 -33
-14 -33 -18 -119 -56 -129 -57 -5 -1 -19 -9 -33 -18 -14 -9 -38 -23 -55 -31
-30 -15 -44 -24 -70 -48 -8 -7 -15 -10 -15 -5 0 4 -11 -4 -24 -19 -12 -15 -25
-25 -28 -22 -3 3 -15 -7 -27 -22 -12 -15 -23 -25 -25 -23 -12 15 -126 280
-126 294 0 23 409 435 432 435 10 0 86 -31 169 -70z m-1046 -850 c4 -6 6 -209
6 -452 -1 -429 -2 -442 -21 -460 -11 -11 -26 -16 -33 -12 -6 4 -9 4 -5 -1 8
-9 -31 -42 -44 -37 -5 1 -8 -2 -8 -7 0 -5 -9 -13 -20 -16 -11 -4 -18 -11 -15
-16 4 -5 1 -9 -4 -9 -6 0 -21 -9 -33 -19 -13 -11 -34 -29 -47 -40 -13 -12 -28
-21 -33 -21 -5 0 -6 -4 -3 -10 3 -5 1 -10 -5 -10 -11 0 -150 -138 -210 -209
-19 -23 -47 -56 -62 -73 -15 -18 -26 -34 -23 -36 2 -2 -6 -15 -18 -28 -12 -14
-29 -33 -39 -44 -9 -10 -14 -21 -11 -24 4 -3 1 -6 -6 -6 -7 0 -9 -4 -6 -10 3
-5 2 -10 -2 -10 -5 0 -17 -15 -28 -32 -10 -18 -21 -35 -24 -38 -3 -3 -19 -31
-36 -63 -16 -32 -35 -56 -42 -55 -7 2 -121 111 -253 242 -157 156 -240 246
-240 259 0 13 62 83 172 194 131 132 178 173 197 173 19 0 65 -40 191 -165
130 -129 172 -165 192 -165 58 0 58 -3 58 409 l0 378 28 34 c15 19 107 114
205 212 168 168 204 195 222 167z m4605 -945 c14 -2 26 -6 68 -22 9 -3 20 -7
24 -7 3 -1 9 -4 13 -8 4 -4 14 -4 23 -1 11 5 13 3 7 -6 -5 -9 -2 -12 11 -9 11
3 37 -4 59 -15 22 -11 40 -19 40 -18 0 2 12 0 27 -4 21 -6 27 -13 26 -31 -1
-13 -7 -24 -13 -24 -11 -1 -61 -65 -55 -71 2 -2 -5 -14 -15 -26 -21 -25 -28
-73 -11 -73 6 0 5 -4 -3 -9 -7 -5 -10 -14 -7 -20 4 -6 3 -11 -3 -11 -7 0 -7
-8 0 -27 5 -14 8 -32 5 -40 -3 -7 -1 -13 4 -13 6 0 9 -3 8 -7 -9 -41 118 -173
167 -173 8 0 15 -5 15 -11 0 -6 7 -9 15 -6 8 4 17 2 19 -2 5 -7 113 -8 126 -1
3 2 10 4 15 4 6 1 31 12 57 25 75 36 138 109 154 181 12 53 15 112 6 123 -20
24 21 40 60 23 9 -4 22 -8 30 -10 7 -1 19 -5 26 -10 7 -4 16 -5 19 -2 4 3 15
-1 25 -11 10 -9 21 -13 25 -10 3 4 11 3 17 -1 6 -5 31 -15 56 -22 74 -22 78
-29 51 -95 -7 -16 -11 -31 -9 -32 2 -2 -7 -10 -20 -18 -12 -9 -20 -20 -17 -25
3 -5 -3 -15 -15 -22 -11 -7 -20 -17 -20 -21 0 -21 -156 -151 -190 -159 -14 -3
-29 -13 -54 -35 -8 -7 -16 -9 -20 -6 -3 3 -12 0 -21 -7 -8 -7 -15 -9 -15 -5 0
4 -7 2 -15 -5 -9 -7 -18 -10 -22 -7 -3 4 -13 2 -20 -5 -8 -6 -33 -13 -56 -15
-23 -2 -54 -8 -69 -13 -20 -6 -28 -6 -28 3 0 8 -3 8 -11 0 -8 -8 -20 -8 -39
-2 -15 6 -31 9 -36 8 -16 -4 -89 13 -103 25 -12 9 -13 8 -6 -4 6 -12 5 -13 -6
-2 -7 6 -21 12 -31 12 -10 0 -18 5 -18 11 0 5 -4 8 -8 5 -15 -9 -163 72 -193
106 -9 10 -19 15 -22 12 -3 -3 -10 4 -17 15 -6 12 -16 18 -22 15 -7 -4 -8 -3
-4 4 4 6 -2 20 -12 30 -10 10 -24 32 -31 50 -7 17 -17 29 -22 26 -5 -3 -9 -2
-8 3 1 4 0 11 -1 16 -1 4 -3 10 -5 15 -3 10 -15 43 -25 67 -16 36 -28 115 -18
115 5 0 4 9 -2 20 -6 11 -7 20 -2 20 5 0 6 18 2 40 -4 22 -3 40 2 40 5 0 4 9
-2 20 -8 14 -8 20 0 20 8 0 8 6 0 20 -6 11 -7 20 -1 20 5 0 11 15 13 33 11 79
21 89 73 70 22 -9 47 -16 55 -18z m-3558 -345 c21 -36 45 -73 53 -82 8 -10 12
-18 8 -18 -3 0 1 -8 9 -17 9 -10 23 -32 31 -49 l16 -31 -87 -86 c-48 -48 -92
-87 -97 -87 -10 0 -41 42 -36 48 1 1 -5 9 -13 17 -8 8 -29 41 -47 72 -18 32
-36 60 -41 61 -4 2 -8 10 -8 18 0 8 -5 14 -12 14 -6 0 -8 3 -5 7 7 6 -30 73
-47 85 -6 4 -8 8 -4 8 4 0 -6 22 -22 49 -17 26 -30 50 -30 53 0 3 66 4 147 4
l147 -1 38 -65z"/>
    <path d="M5943 9191 c-23 -11 -80 -57 -127 -103 -78 -76 -86 -87 -86 -121 0
-36 8 -47 98 -135 202 -200 200 -200 318 -79 44 46 91 105 104 133 57 116 11
232 -124 311 -33 19 -135 15 -183 -6z"/>
    <path d="M8000 6851 c-14 -4 -35 -6 -47 -5 -12 1 -20 -3 -17 -7 3 -5 -2 -10
-10 -10 -31 -3 -87 -28 -98 -44 -4 -5 -8 -7 -8 -3 0 4 -19 -12 -42 -37 -59
-60 -68 -72 -61 -79 4 -3 0 -6 -7 -6 -7 0 -10 -3 -7 -7 4 -3 -3 -21 -14 -39
-11 -19 -18 -38 -14 -44 3 -5 1 -10 -5 -10 -7 0 -10 -6 -7 -14 3 -8 0 -16 -6
-19 -7 -3 -13 -17 -15 -33 -1 -15 -8 -31 -15 -36 -6 -4 -8 -8 -3 -8 5 0 3 -6
-3 -14 -6 -8 -11 -18 -10 -22 1 -5 0 -12 -1 -16 -1 -5 -3 -11 -5 -15 -1 -5 -6
-19 -12 -33 -6 -14 -10 -27 -10 -30 0 -3 -6 -16 -13 -30 -8 -14 -15 -32 -16
-40 -2 -8 -11 -20 -20 -27 -10 -7 -15 -13 -11 -13 4 0 2 -10 -5 -22 -7 -13
-11 -26 -10 -30 1 -5 -2 -8 -6 -8 -5 0 -17 -16 -28 -35 -10 -19 -22 -35 -27
-35 -4 0 -6 -4 -2 -9 3 -6 -1 -13 -8 -18 -7 -4 -26 -26 -43 -48 -16 -22 -32
-41 -36 -43 -5 -2 -8 -9 -8 -15 0 -7 -14 -25 -30 -41 -16 -16 -27 -32 -25 -36
2 -4 -7 -13 -20 -20 -13 -7 -22 -17 -19 -22 3 -4 -2 -8 -10 -8 -9 0 -15 -3
-15 -7 3 -20 -2 -34 -10 -28 -5 3 -12 -4 -16 -15 -3 -11 -11 -20 -16 -20 -5 0
-9 -4 -9 -10 0 -5 9 -10 21 -10 13 0 18 -4 13 -12 -4 -6 -3 -9 2 -6 5 3 32 2
59 -3 93 -17 140 -20 285 -20 168 1 220 4 220 12 0 3 12 6 28 7 15 0 34 3 42
5 8 2 29 7 45 11 17 4 37 10 45 13 8 4 18 7 23 8 4 2 9 4 12 5 3 1 8 3 13 5
55 15 192 95 192 112 0 7 3 12 8 11 7 -3 82 68 82 78 0 3 7 12 15 21 8 8 13
19 10 24 -4 5 -1 9 5 9 6 0 16 14 21 30 6 17 14 30 18 30 4 0 7 10 8 22 1 11
8 25 15 29 7 5 10 9 6 9 -3 0 5 33 19 73 13 39 26 90 28 112 1 22 4 42 5 45 1
3 2 9 1 13 -1 4 17 25 38 46 22 22 37 42 33 47 -4 4 -1 4 5 0 8 -4 36 16 73
52 33 33 60 61 60 64 0 3 -13 5 -30 6 -16 0 -30 -4 -30 -9 0 -6 -6 -7 -17 -1
-9 5 -28 7 -42 3 -23 -6 -48 -6 -103 0 -10 1 -18 8 -18 16 0 7 -5 13 -11 13
-5 0 -8 4 -4 9 3 5 1 12 -5 16 -6 4 -8 11 -5 16 4 5 1 9 -4 9 -6 0 -11 7 -11
15 0 8 -4 15 -10 15 -5 0 -10 7 -10 15 0 9 -7 18 -15 21 -8 4 -13 9 -11 13 3
4 -9 16 -25 26 -16 11 -29 23 -29 27 0 10 -86 47 -124 54 -53 10 -100 11 -126
5z m170 -253 c0 -5 5 -6 10 -3 6 3 10 1 10 -5 0 -6 5 -8 10 -5 14 9 70 -54 63
-71 -6 -16 -39 -19 -48 -3 -4 5 -12 8 -18 6 -7 -2 -22 0 -34 4 -13 5 -23 5
-23 0 0 -5 -9 -7 -20 -4 -13 4 -27 -1 -36 -13 -9 -11 -12 -13 -9 -5 5 9 -1 8
-19 -4 -14 -10 -26 -13 -26 -7 0 6 -2 17 -5 24 -7 18 50 82 64 73 6 -3 11 -1
11 5 0 6 4 9 8 6 4 -2 14 -1 20 3 17 10 42 10 42 -1z"/>
  </g>
</svg>
